<svg width="40" height="40" viewBox="0 0 40 40" fill="none" xmlns="http://www.w3.org/2000/svg">
<rect width="40" height="40" rx="10" fill="#485563"/>
<path d="M21.9443 28.4446C22.1449 28.6342 22.3984 28.75 22.694 28.75C23.2959 28.75 23.75 28.2867 23.75 27.6971C23.75 27.4022 23.6338 27.139 23.4332 26.9389L16.316 20L23.4332 13.0611C23.6338 12.861 23.75 12.5872 23.75 12.3029C23.75 11.7133 23.2959 11.25 22.694 11.25C22.3984 11.25 22.1555 11.3553 21.9443 11.5554L14.109 19.1892C13.8767 19.4103 13.75 19.6946 13.75 20C13.75 20.3054 13.8767 20.5686 14.109 20.8002L21.9443 28.4446Z" fill="white"/>
</svg>
