<svg width="24" height="23" viewBox="0 0 24 23" fill="none" xmlns="http://www.w3.org/2000/svg">
<path d="M4.60383 22.7378C5.16238 23.1593 5.83687 23.0223 6.6062 22.4638L12.0021 18.5012L17.3979 22.4638C18.1673 23.0223 18.8417 23.1593 19.4003 22.7378C19.9483 22.3267 20.0537 21.6417 19.7586 20.7565L17.6192 14.4227L23.0678 10.5128C23.8266 9.97528 24.1533 9.35349 23.932 8.70008C23.7107 8.04668 23.0994 7.73051 22.1615 7.74105L15.4904 7.79375L13.4564 1.41777C13.1719 0.511437 12.6871 0.0161133 12.0021 0.0161133C11.317 0.0161133 10.8428 0.511437 10.5477 1.41777L8.51372 7.79375L1.84266 7.74105C0.904709 7.73051 0.293458 8.04668 0.0721435 8.68954C-0.15971 9.35349 0.177531 9.97528 0.936325 10.5128L6.38488 14.4227L4.24551 20.7565C3.95042 21.6417 4.05581 22.3267 4.60383 22.7378Z" fill="#FFB300"/>
</svg>
